<?xml version="1.0" encoding="UTF-8" standalone="no"?>
<svg
   xmlns:dc="http://purl.org/dc/elements/1.1/"
   xmlns:cc="http://creativecommons.org/ns#"
   xmlns:rdf="http://www.w3.org/1999/02/22-rdf-syntax-ns#"
   xmlns:svg="http://www.w3.org/2000/svg"
   xmlns="http://www.w3.org/2000/svg"
   xmlns:sodipodi="http://sodipodi.sourceforge.net/DTD/sodipodi-0.dtd"
   xmlns:inkscape="http://www.inkscape.org/namespaces/inkscape"
   width="24"
   height="24"
   viewBox="0 0 24 24"
   fill="none"
   stroke="#000"
   stroke-width="1"
   stroke-linecap="round"
   stroke-linejoin="round"
   version="1.1"
   id="svg4"
   sodipodi:docname="facebook.svg"
   inkscape:version="0.92.1 r">
  <metadata
     id="metadata10">
    <rdf:RDF>
      <cc:Work
         rdf:about="">
        <dc:format>image/svg+xml</dc:format>
        <dc:type
           rdf:resource="http://purl.org/dc/dcmitype/StillImage" />
      </cc:Work>
    </rdf:RDF>
  </metadata>
  <defs
     id="defs8" />
  <sodipodi:namedview
     pagecolor="#ffffff"
     bordercolor="#666666"
     borderopacity="1"
     objecttolerance="10"
     gridtolerance="10"
     guidetolerance="10"
     inkscape:pageopacity="0"
     inkscape:pageshadow="2"
     inkscape:window-width="640"
     inkscape:window-height="480"
     id="namedview6"
     showgrid="false"
     inkscape:zoom="9.8333333"
     inkscape:cx="12"
     inkscape:cy="12"
     inkscape:current-layer="svg4" />
  <path
     style="color:#000000;font-style:normal;font-variant:normal;font-weight:normal;font-stretch:normal;font-size:medium;line-height:normal;font-family:sans-serif;font-variant-ligatures:normal;font-variant-position:normal;font-variant-caps:normal;font-variant-numeric:normal;font-variant-alternates:normal;font-feature-settings:normal;text-indent:0;text-align:start;text-decoration:none;text-decoration-line:none;text-decoration-style:solid;text-decoration-color:#000000;letter-spacing:normal;word-spacing:normal;text-transform:none;writing-mode:lr-tb;direction:ltr;text-orientation:mixed;dominant-baseline:auto;baseline-shift:baseline;text-anchor:start;white-space:normal;shape-padding:0;clip-rule:nonzero;display:inline;overflow:visible;visibility:visible;opacity:1;isolation:auto;mix-blend-mode:normal;color-interpolation:sRGB;color-interpolation-filters:linearRGB;solid-color:#000000;solid-opacity:1;vector-effect:none;fill:#000000;fill-opacity:1;fill-rule:nonzero;stroke:none;stroke-width:1;stroke-linecap:butt;stroke-linejoin:miter;stroke-miterlimit:4;stroke-dasharray:none;stroke-dashoffset:0;stroke-opacity:1;color-rendering:auto;image-rendering:auto;shape-rendering:auto;text-rendering:auto;enable-background:accumulate"
     d="M 15,1.5 C 11.968356,1.5 9.5,3.9683562 9.5,7 V 9.5 H 7 A 0.50005,0.50005 0 0 0 6.5,10 v 4 A 0.50005,0.50005 0 0 0 7,14.5 H 9.5 V 22 a 0.50005,0.50005 0 0 0 0.5,0.5 h 4 A 0.50005,0.50005 0 0 0 14.5,22 V 14.5 H 17 a 0.50005,0.50005 0 0 0 0.484375,-0.378906 l 1,-4 A 0.50005,0.50005 0 0 0 18,9.5 H 14.5 V 7 c 0,-0.2820647 0.217935,-0.5 0.5,-0.5 h 3 A 0.50005,0.50005 0 0 0 18.5,6 V 2 A 0.50005,0.50005 0 0 0 18,1.5 Z m 0,1 h 2.5 v 3 H 15 c -0.822505,0 -1.5,0.6774952 -1.5,1.5 v 3 a 0.50005,0.50005 0 0 0 0.5,0.5 h 3.359375 l -0.75,3 H 14 A 0.50005,0.50005 0 0 0 13.5,14 v 7.5 h -3 V 14 A 0.50005,0.50005 0 0 0 10,13.5 H 7.5 v -3 H 10 A 0.50005,0.50005 0 0 0 10.5,10 V 7 c 0,-2.4912037 2.008796,-4.5 4.5,-4.5 z"
     id="path2"
     inkscape:connector-curvature="0" />
</svg>
