<?xml version="1.0" encoding="UTF-8" standalone="no"?>
<svg
   xmlns:dc="http://purl.org/dc/elements/1.1/"
   xmlns:cc="http://creativecommons.org/ns#"
   xmlns:rdf="http://www.w3.org/1999/02/22-rdf-syntax-ns#"
   xmlns:svg="http://www.w3.org/2000/svg"
   xmlns="http://www.w3.org/2000/svg"
   xmlns:sodipodi="http://sodipodi.sourceforge.net/DTD/sodipodi-0.dtd"
   xmlns:inkscape="http://www.inkscape.org/namespaces/inkscape"
   width="24"
   height="24"
   viewBox="0 0 24 24"
   fill="none"
   stroke="#000"
   stroke-width="1"
   stroke-linecap="round"
   stroke-linejoin="round"
   version="1.1"
   id="svg6"
   sodipodi:docname="at-sign.svg"
   inkscape:version="0.92.1 r">
  <metadata
     id="metadata12">
    <rdf:RDF>
      <cc:Work
         rdf:about="">
        <dc:format>image/svg+xml</dc:format>
        <dc:type
           rdf:resource="http://purl.org/dc/dcmitype/StillImage" />
      </cc:Work>
    </rdf:RDF>
  </metadata>
  <defs
     id="defs10" />
  <sodipodi:namedview
     pagecolor="#ffffff"
     bordercolor="#666666"
     borderopacity="1"
     objecttolerance="10"
     gridtolerance="10"
     guidetolerance="10"
     inkscape:pageopacity="0"
     inkscape:pageshadow="2"
     inkscape:window-width="640"
     inkscape:window-height="480"
     id="namedview8"
     showgrid="false"
     inkscape:zoom="9.8333333"
     inkscape:cx="12"
     inkscape:cy="12"
     inkscape:current-layer="svg6" />
  <path
     style="color:#000000;font-style:normal;font-variant:normal;font-weight:normal;font-stretch:normal;font-size:medium;line-height:normal;font-family:sans-serif;font-variant-ligatures:normal;font-variant-position:normal;font-variant-caps:normal;font-variant-numeric:normal;font-variant-alternates:normal;font-feature-settings:normal;text-indent:0;text-align:start;text-decoration:none;text-decoration-line:none;text-decoration-style:solid;text-decoration-color:#000000;letter-spacing:normal;word-spacing:normal;text-transform:none;writing-mode:lr-tb;direction:ltr;text-orientation:mixed;dominant-baseline:auto;baseline-shift:baseline;text-anchor:start;white-space:normal;shape-padding:0;clip-rule:nonzero;display:inline;overflow:visible;visibility:visible;opacity:1;isolation:auto;mix-blend-mode:normal;color-interpolation:sRGB;color-interpolation-filters:linearRGB;solid-color:#000000;solid-opacity:1;vector-effect:none;fill:#000000;fill-opacity:1;fill-rule:nonzero;stroke:none;stroke-width:1;stroke-linecap:butt;stroke-linejoin:miter;stroke-miterlimit:4;stroke-dasharray:none;stroke-dashoffset:0;stroke-opacity:1;color-rendering:auto;image-rendering:auto;shape-rendering:auto;text-rendering:auto;enable-background:accumulate"
     d="m 12,7.5 c -2.4793591,0 -4.5,2.0206409 -4.5,4.5 0,2.479359 2.0206409,4.5 4.5,4.5 2.479359,0 4.5,-2.020641 4.5,-4.5 0,-2.4793591 -2.020641,-4.5 -4.5,-4.5 z m 0,1 c 1.938919,0 3.5,1.561081 3.5,3.5 0,1.938919 -1.561081,3.5 -3.5,3.5 -1.938919,0 -3.5,-1.561081 -3.5,-3.5 0,-1.938919 1.561081,-3.5 3.5,-3.5 z"
     id="circle2"
     inkscape:connector-curvature="0" />
  <path
     style="color:#000000;font-style:normal;font-variant:normal;font-weight:normal;font-stretch:normal;font-size:medium;line-height:normal;font-family:sans-serif;font-variant-ligatures:normal;font-variant-position:normal;font-variant-caps:normal;font-variant-numeric:normal;font-variant-alternates:normal;font-feature-settings:normal;text-indent:0;text-align:start;text-decoration:none;text-decoration-line:none;text-decoration-style:solid;text-decoration-color:#000000;letter-spacing:normal;word-spacing:normal;text-transform:none;writing-mode:lr-tb;direction:ltr;text-orientation:mixed;dominant-baseline:auto;baseline-shift:baseline;text-anchor:start;white-space:normal;shape-padding:0;clip-rule:nonzero;display:inline;overflow:visible;visibility:visible;opacity:1;isolation:auto;mix-blend-mode:normal;color-interpolation:sRGB;color-interpolation-filters:linearRGB;solid-color:#000000;solid-opacity:1;vector-effect:none;fill:#000000;fill-opacity:1;fill-rule:nonzero;stroke:none;stroke-width:1;stroke-linecap:butt;stroke-linejoin:miter;stroke-miterlimit:4;stroke-dasharray:none;stroke-dashoffset:0;stroke-opacity:1;color-rendering:auto;image-rendering:auto;shape-rendering:auto;text-rendering:auto;enable-background:accumulate"
     d="M 11.050781,1.5234375 C 7.6921573,1.7910366 4.4181823,3.6462412 2.5878906,7.3535156 0.14750177,12.296548 1.8825744,17.275126 5.3339844,20.113281 c 3.45141,2.838155 8.6707976,3.578818 13.0507816,0.22461 A 0.50080906,0.50080906 0 1 0 17.775391,19.542969 C 13.752534,22.623688 9.1093642,21.922426 5.96875,19.339844 2.8281358,16.757262 1.2432211,12.336355 3.484375,7.796875 5.7255289,3.2573949 10.200197,1.8270093 14.160156,2.75 18.120115,3.6729907 21.499681,6.9330277 21.5,12 v 1 c 0,0.875 -0.310122,1.46859 -0.769531,1.876953 C 20.27106,15.285317 19.638889,15.5 19,15.5 18.361111,15.5 17.72894,15.285317 17.269531,14.876953 16.810122,14.46859 16.5,13.875 16.5,13 v -1 a 0.50005,0.50005 0 1 0 -1,0 v 1 c 0,1.125 0.439878,2.031411 1.105469,2.623047 C 17.27106,16.214683 18.138889,16.5 19,16.5 c 0.861111,0 1.72894,-0.285317 2.394531,-0.876953 C 22.060122,15.031411 22.5,14.125 22.5,13 V 12 C 22.499653,6.4832104 18.738556,2.7897207 14.386719,1.7753906 13.298759,1.5218081 12.170323,1.4342378 11.050781,1.5234375 Z"
     id="path4"
     inkscape:connector-curvature="0" />
</svg>
