<?xml version="1.0" encoding="UTF-8" standalone="no"?>
<svg
   xmlns:dc="http://purl.org/dc/elements/1.1/"
   xmlns:cc="http://creativecommons.org/ns#"
   xmlns:rdf="http://www.w3.org/1999/02/22-rdf-syntax-ns#"
   xmlns:svg="http://www.w3.org/2000/svg"
   xmlns="http://www.w3.org/2000/svg"
   xmlns:sodipodi="http://sodipodi.sourceforge.net/DTD/sodipodi-0.dtd"
   xmlns:inkscape="http://www.inkscape.org/namespaces/inkscape"
   width="24"
   height="24"
   viewBox="0 0 24 24"
   version="1.1"
   id="svg4"
   sodipodi:docname="github.svg"
   inkscape:version="0.92.1 r">
  <metadata
     id="metadata10">
    <rdf:RDF>
      <cc:Work
         rdf:about="">
        <dc:format>image/svg+xml</dc:format>
        <dc:type
           rdf:resource="http://purl.org/dc/dcmitype/StillImage" />
      </cc:Work>
    </rdf:RDF>
  </metadata>
  <defs
     id="defs8" />
  <sodipodi:namedview
     pagecolor="#ffffff"
     bordercolor="#666666"
     borderopacity="1"
     objecttolerance="10"
     gridtolerance="10"
     guidetolerance="10"
     inkscape:pageopacity="0"
     inkscape:pageshadow="2"
     inkscape:window-width="640"
     inkscape:window-height="480"
     id="namedview6"
     showgrid="false"
     inkscape:zoom="9.8333333"
     inkscape:cx="12"
     inkscape:cy="12"
     inkscape:current-layer="svg4" />
  <path
     style="color:#000000;font-style:normal;font-variant:normal;font-weight:normal;font-stretch:normal;font-size:medium;line-height:normal;font-family:sans-serif;font-variant-ligatures:normal;font-variant-position:normal;font-variant-caps:normal;font-variant-numeric:normal;font-variant-alternates:normal;font-feature-settings:normal;text-indent:0;text-align:start;text-decoration:none;text-decoration-line:none;text-decoration-style:solid;text-decoration-color:#000000;letter-spacing:normal;word-spacing:normal;text-transform:none;writing-mode:lr-tb;direction:ltr;text-orientation:mixed;dominant-baseline:auto;baseline-shift:baseline;text-anchor:start;white-space:normal;shape-padding:0;clip-rule:nonzero;display:inline;overflow:visible;visibility:visible;opacity:1;isolation:auto;mix-blend-mode:normal;color-interpolation:sRGB;color-interpolation-filters:linearRGB;solid-color:#000000;solid-opacity:1;vector-effect:none;fill:#000000;fill-opacity:1;fill-rule:nonzero;stroke:none;stroke-width:1;stroke-linecap:round;stroke-linejoin:round;stroke-miterlimit:4;stroke-dasharray:none;stroke-dashoffset:0;stroke-opacity:1;color-rendering:auto;image-rendering:auto;shape-rendering:auto;text-rendering:auto;enable-background:accumulate"
     d="m 5.3027344,0.47460938 c -0.1963886,0.005405 -0.3554688,0.046875 -0.3554688,0.046875 a 0.50005,0.50005 0 0 0 -0.3164062,0.28125 C 4.1045248,2.0307391 4.0843644,3.3978307 4.484375,4.6660156 3.5489819,5.74982 2.9928281,7.1127517 3,8.5507812 c 0,2.8114758 0.8855067,4.6448618 2.2207031,5.7675778 1.1352281,0.954571 2.54368,1.342278 3.9296875,1.574219 -0.4264312,0.686126 -0.7060638,1.454096 -0.6484375,2.273438 L 8.5,18.130859 v 0.419922 C 7.5458996,18.784394 6.7367955,18.875691 6.1914062,18.748047 5.5620614,18.600753 5.1239259,18.291895 4.7285156,17.896484 4.3331053,17.501074 3.9990085,17.016924 3.6152344,16.566406 3.2314603,16.115889 2.773273,15.67867 2.1210938,15.515625 a 0.50005,0.50005 0 1 0 -0.2421876,0.96875 c 0.3478208,0.08695 0.6396335,0.337236 0.9746094,0.730469 0.3349759,0.393232 0.6883791,0.909082 1.1679688,1.388672 0.4795897,0.479589 1.1039542,0.920731 1.9433594,1.117187 C 6.6341045,19.877339 7.5434365,19.731784 8.5,19.527344 V 22 a 0.50005,0.50005 0 1 0 1,0 v -2.921875 a 0.50005,0.50005 0 0 0 0,-0.158203 v -0.789063 a 0.50005,0.50005 0 0 0 -0.00195,-0.03516 c -0.057188,-0.813104 0.2339362,-1.611522 0.8007811,-2.197265 a 0.50005,0.50005 0 0 0 -0.296875,-0.84375 C 8.4724211,14.864714 6.9650379,14.477518 5.8652344,13.552734 4.7654308,12.627951 4,11.159305 4,8.5507812 A 0.50005,0.50005 0 0 0 4,8.546875 C 3.993209,7.2694454 4.4804809,6.0404266 5.3613281,5.1152344 A 0.50005,0.50005 0 0 0 5.46875,4.5957031 C 5.0936316,3.5905506 5.1308557,2.4982587 5.484375,1.4921875 c 0.1129504,0.00455 0.2213446,0.00301 0.4277344,0.048828 0.5616778,0.1246947 1.4835156,0.4652765 2.8085937,1.3535156 a 0.50005,0.50005 0 0 0 0.4101563,0.068359 c 2.2063666,-0.5979723 4.5319146,-0.5979723 6.7382816,0 a 0.50005,0.50005 0 0 0 0.410156,-0.068359 c 1.325078,-0.8882391 2.246916,-1.2288209 2.808594,-1.3535156 0.206389,-0.045819 0.314784,-0.044282 0.427734,-0.048828 0.353519,1.0060712 0.390743,2.0983631 0.01563,3.1035156 a 0.50005,0.50005 0 0 0 0.107422,0.5195313 C 20.512994,6.0336108 20.999767,7.2515192 21,8.5195312 c 0,2.6292678 -0.766658,4.1094518 -1.865234,5.0332028 -1.098576,0.923752 -2.603698,1.300478 -4.13086,1.470704 a 0.50005,0.50005 0 0 0 -0.302734,0.84375 c 0.573763,0.591842 0.865428,1.400888 0.800781,2.222656 A 0.50005,0.50005 0 0 0 15.5,18.130859 V 22 a 0.50005,0.50005 0 1 0 1,0 v -3.869141 l -0.002,0.03906 c 0.06521,-0.828925 -0.213546,-1.608039 -0.644531,-2.302734 1.385215,-0.217771 2.791911,-0.5954 3.925781,-1.548829 C 21.115721,13.194611 22,11.350264 22,8.5195312 21.999738,7.0921468 21.444045,5.7418207 20.515625,4.6660156 20.915636,3.3978307 20.895475,2.0307391 20.369141,0.80273438 a 0.50005,0.50005 0 0 0 -0.316407,-0.28125 c 0,0 -0.15908,-0.0414698 -0.355468,-0.046875 -0.196389,-0.005405 -0.470761,0.0128942 -0.826172,0.0917969 -0.665959,0.14784535 -1.678717,0.58498615 -2.951172,1.40429685 -2.246391,-0.5717219 -4.593453,-0.5717219 -6.8398439,0 C 7.8076228,1.1513924 6.7948645,0.7142516 6.1289062,0.56640625 5.7734952,0.4875036 5.499123,0.46920418 5.3027344,0.47460938 Z"
     id="path2"
     inkscape:connector-curvature="0" />
</svg>
