<?xml version="1.0" encoding="UTF-8" standalone="no"?>
<svg
   xmlns:dc="http://purl.org/dc/elements/1.1/"
   xmlns:cc="http://creativecommons.org/ns#"
   xmlns:rdf="http://www.w3.org/1999/02/22-rdf-syntax-ns#"
   xmlns:svg="http://www.w3.org/2000/svg"
   xmlns="http://www.w3.org/2000/svg"
   xmlns:sodipodi="http://sodipodi.sourceforge.net/DTD/sodipodi-0.dtd"
   xmlns:inkscape="http://www.inkscape.org/namespaces/inkscape"
   width="24"
   height="24"
   viewBox="0 0 24 24"
   fill="none"
   stroke="#000"
   stroke-width="1"
   stroke-linecap="round"
   stroke-linejoin="round"
   version="1.1"
   id="svg4"
   sodipodi:docname="maximize.svg"
   inkscape:version="0.92.1 r">
  <metadata
     id="metadata10">
    <rdf:RDF>
      <cc:Work
         rdf:about="">
        <dc:format>image/svg+xml</dc:format>
        <dc:type
           rdf:resource="http://purl.org/dc/dcmitype/StillImage" />
      </cc:Work>
    </rdf:RDF>
  </metadata>
  <defs
     id="defs8" />
  <sodipodi:namedview
     pagecolor="#ffffff"
     bordercolor="#666666"
     borderopacity="1"
     objecttolerance="10"
     gridtolerance="10"
     guidetolerance="10"
     inkscape:pageopacity="0"
     inkscape:pageshadow="2"
     inkscape:window-width="640"
     inkscape:window-height="480"
     id="namedview6"
     showgrid="false"
     inkscape:zoom="9.8333333"
     inkscape:cx="12"
     inkscape:cy="12"
     inkscape:current-layer="svg4" />
  <path
     style="color:#000000;font-style:normal;font-variant:normal;font-weight:normal;font-stretch:normal;font-size:medium;line-height:normal;font-family:sans-serif;font-variant-ligatures:normal;font-variant-position:normal;font-variant-caps:normal;font-variant-numeric:normal;font-variant-alternates:normal;font-feature-settings:normal;text-indent:0;text-align:start;text-decoration:none;text-decoration-line:none;text-decoration-style:solid;text-decoration-color:#000000;letter-spacing:normal;word-spacing:normal;text-transform:none;writing-mode:lr-tb;direction:ltr;text-orientation:mixed;dominant-baseline:auto;baseline-shift:baseline;text-anchor:start;white-space:normal;shape-padding:0;clip-rule:nonzero;display:inline;overflow:visible;visibility:visible;opacity:1;isolation:auto;mix-blend-mode:normal;color-interpolation:sRGB;color-interpolation-filters:linearRGB;solid-color:#000000;solid-opacity:1;vector-effect:none;fill:#000000;fill-opacity:1;fill-rule:nonzero;stroke:none;stroke-width:1;stroke-linecap:butt;stroke-linejoin:miter;stroke-miterlimit:4;stroke-dasharray:none;stroke-dashoffset:0;stroke-opacity:1;color-rendering:auto;image-rendering:auto;shape-rendering:auto;text-rendering:auto;enable-background:accumulate"
     d="M 5,2.5 C 3.6252104,2.5 2.5,3.6252104 2.5,5 v 3 a 0.50005,0.50005 0 1 0 1,0 V 5 C 3.5,4.1656506 4.1656506,3.5 5,3.5 h 3 a 0.50005,0.50005 0 1 0 0,-1 z m 11,0 a 0.50005,0.50005 0 1 0 0,1 h 3 c 0.834349,0 1.5,0.6656506 1.5,1.5 v 3 a 0.50005,0.50005 0 1 0 1,0 V 5 C 21.5,3.6252104 20.37479,2.5 19,2.5 Z M 2.9921875,15.492188 A 0.50005,0.50005 0 0 0 2.5,16 v 3 c 0,1.37479 1.1252104,2.5 2.5,2.5 h 3 a 0.50005,0.50005 0 1 0 0,-1 H 5 C 4.1656506,20.5 3.5,19.834349 3.5,19 V 16 A 0.50005,0.50005 0 0 0 2.9921875,15.492188 Z m 18.0000005,0 A 0.50005,0.50005 0 0 0 20.5,16 v 3 c 0,0.834349 -0.665651,1.5 -1.5,1.5 h -3 a 0.50005,0.50005 0 1 0 0,1 h 3 c 1.37479,0 2.5,-1.12521 2.5,-2.5 v -3 a 0.50005,0.50005 0 0 0 -0.507812,-0.507812 z"
     id="path2"
     inkscape:connector-curvature="0" />
</svg>
