<?xml version="1.0" encoding="UTF-8" standalone="no"?>
<svg
   xmlns:dc="http://purl.org/dc/elements/1.1/"
   xmlns:cc="http://creativecommons.org/ns#"
   xmlns:rdf="http://www.w3.org/1999/02/22-rdf-syntax-ns#"
   xmlns:svg="http://www.w3.org/2000/svg"
   xmlns="http://www.w3.org/2000/svg"
   xmlns:sodipodi="http://sodipodi.sourceforge.net/DTD/sodipodi-0.dtd"
   xmlns:inkscape="http://www.inkscape.org/namespaces/inkscape"
   width="24"
   height="24"
   viewBox="0 0 24 24"
   fill="none"
   stroke="#000"
   stroke-width="1"
   stroke-linecap="round"
   stroke-linejoin="round"
   version="1.1"
   id="svg4"
   sodipodi:docname="minimize.svg"
   inkscape:version="0.92.1 r">
  <metadata
     id="metadata10">
    <rdf:RDF>
      <cc:Work
         rdf:about="">
        <dc:format>image/svg+xml</dc:format>
        <dc:type
           rdf:resource="http://purl.org/dc/dcmitype/StillImage" />
      </cc:Work>
    </rdf:RDF>
  </metadata>
  <defs
     id="defs8" />
  <sodipodi:namedview
     pagecolor="#ffffff"
     bordercolor="#666666"
     borderopacity="1"
     objecttolerance="10"
     gridtolerance="10"
     guidetolerance="10"
     inkscape:pageopacity="0"
     inkscape:pageshadow="2"
     inkscape:window-width="640"
     inkscape:window-height="480"
     id="namedview6"
     showgrid="false"
     inkscape:zoom="9.8333333"
     inkscape:cx="12"
     inkscape:cy="12"
     inkscape:current-layer="svg4" />
  <path
     style="color:#000000;font-style:normal;font-variant:normal;font-weight:normal;font-stretch:normal;font-size:medium;line-height:normal;font-family:sans-serif;font-variant-ligatures:normal;font-variant-position:normal;font-variant-caps:normal;font-variant-numeric:normal;font-variant-alternates:normal;font-feature-settings:normal;text-indent:0;text-align:start;text-decoration:none;text-decoration-line:none;text-decoration-style:solid;text-decoration-color:#000000;letter-spacing:normal;word-spacing:normal;text-transform:none;writing-mode:lr-tb;direction:ltr;text-orientation:mixed;dominant-baseline:auto;baseline-shift:baseline;text-anchor:start;white-space:normal;shape-padding:0;clip-rule:nonzero;display:inline;overflow:visible;visibility:visible;opacity:1;isolation:auto;mix-blend-mode:normal;color-interpolation:sRGB;color-interpolation-filters:linearRGB;solid-color:#000000;solid-opacity:1;vector-effect:none;fill:#000000;fill-opacity:1;fill-rule:nonzero;stroke:none;stroke-width:1;stroke-linecap:butt;stroke-linejoin:miter;stroke-miterlimit:4;stroke-dasharray:none;stroke-dashoffset:0;stroke-opacity:1;color-rendering:auto;image-rendering:auto;shape-rendering:auto;text-rendering:auto;enable-background:accumulate"
     d="M 7.9921875,2.4921875 A 0.50005,0.50005 0 0 0 7.5,3 V 6 C 7.5,6.8343494 6.8343494,7.5 6,7.5 H 3 a 0.50005,0.50005 0 1 0 0,1 H 6 C 7.3747896,8.5 8.5,7.3747896 8.5,6 V 3 A 0.50005,0.50005 0 0 0 7.9921875,2.4921875 Z m 8.0000005,0 A 0.50005,0.50005 0 0 0 15.5,3 v 3 c 0,1.3747896 1.12521,2.5 2.5,2.5 h 3 a 0.50005,0.50005 0 1 0 0,-1 H 18 C 17.165651,7.5 16.5,6.8343494 16.5,6 V 3 A 0.50005,0.50005 0 0 0 15.992188,2.4921875 Z M 3,15.5 a 0.50005,0.50005 0 1 0 0,1 h 3 c 0.8343494,0 1.5,0.665651 1.5,1.5 v 3 a 0.50005,0.50005 0 1 0 1,0 V 18 C 8.5,16.62521 7.3747896,15.5 6,15.5 Z m 15,0 c -1.37479,0 -2.5,1.12521 -2.5,2.5 v 3 a 0.50005,0.50005 0 1 0 1,0 v -3 c 0,-0.834349 0.665651,-1.5 1.5,-1.5 h 3 a 0.50005,0.50005 0 1 0 0,-1 z"
     id="path2"
     inkscape:connector-curvature="0" />
</svg>
