<?xml version="1.0" standalone="no"?><!-- Generator: Gravit.io --><svg xmlns="http://www.w3.org/2000/svg" xmlns:xlink="http://www.w3.org/1999/xlink" style="isolation:isolate" viewBox="0 0 24 24" width="24" height="24"><defs><clipPath id="_clipPath_icHrlE7q3uqLiJ5meGoG9Lwrjit1RzEh"><rect width="24" height="24"/></clipPath></defs><g clip-path="url(#_clipPath_icHrlE7q3uqLiJ5meGoG9Lwrjit1RzEh)"><path d=" M 22.52 4.018 C 22.518 2.557 21.25 1.398 19.795 1.529 C 19.793 1.53 19.79 1.531 19.787 1.531 C 16.618 1.868 13.573 2.945 10.899 4.678 C 8.423 6.251 6.324 8.351 4.75 10.826 C 3.024 13.489 1.945 16.519 1.602 19.674 C 1.602 19.677 1.602 19.68 1.602 19.684 C 1.47 21.143 2.636 22.414 4.102 22.408 L 7.088 22.408 C 8.353 22.44 9.449 21.511 9.625 20.258 C 9.625 20.256 9.625 20.255 9.625 20.254 C 9.747 19.331 9.974 18.425 10.299 17.553 L 10.297 17.555 C 10.64 16.642 10.42 15.609 9.735 14.916 C 9.734 14.915 9.733 14.915 9.733 14.914 L 8.77 13.951 C 10.077 11.777 11.889 9.965 14.063 8.658 L 15.026 9.621 C 15.026 9.622 15.027 9.622 15.028 9.623 C 15.721 10.308 16.754 10.528 17.666 10.186 L 17.664 10.188 C 18.536 9.862 19.443 9.635 20.366 9.514 C 20.367 9.514 20.368 9.514 20.369 9.514 C 21.608 9.339 22.532 8.265 22.52 7.014 L 22.52 4.018 Z  M 21.52 4.018 L 21.52 7.018 C 21.52 7.019 21.52 7.021 21.52 7.023 C 21.527 7.78 20.98 8.417 20.231 8.523 C 19.235 8.655 18.256 8.899 17.315 9.25 C 16.766 9.456 16.148 9.325 15.731 8.912 L 14.463 7.644 C 14.304 7.486 14.059 7.453 13.864 7.564 C 11.282 9.032 9.144 11.17 7.676 13.752 C 7.565 13.947 7.598 14.192 7.756 14.352 L 9.024 15.619 C 9.436 16.036 9.568 16.654 9.362 17.203 C 9.01 18.144 8.767 19.123 8.635 20.119 C 8.528 20.877 7.877 21.427 7.112 21.408 C 7.108 21.408 7.104 21.408 7.1 21.408 L 4.1 21.408 C 4.099 21.408 4.099 21.408 4.098 21.408 C 3.206 21.412 2.518 20.662 2.598 19.773 C 2.925 16.777 3.95 13.9 5.59 11.371 C 5.591 11.37 5.591 11.368 5.592 11.367 C 7.088 9.013 9.084 7.015 11.438 5.519 C 11.439 5.519 11.44 5.518 11.442 5.518 C 13.983 3.871 16.878 2.848 19.889 2.527 C 20.772 2.45 21.518 3.131 21.52 4.018 Z " fill="rgb(0,0,0)"/></g></svg>