<?xml version="1.0" encoding="UTF-8" standalone="no"?>
<svg
   xmlns:dc="http://purl.org/dc/elements/1.1/"
   xmlns:cc="http://creativecommons.org/ns#"
   xmlns:rdf="http://www.w3.org/1999/02/22-rdf-syntax-ns#"
   xmlns:svg="http://www.w3.org/2000/svg"
   xmlns="http://www.w3.org/2000/svg"
   xmlns:sodipodi="http://sodipodi.sourceforge.net/DTD/sodipodi-0.dtd"
   xmlns:inkscape="http://www.inkscape.org/namespaces/inkscape"
   width="24"
   height="24"
   viewBox="0 0 24 24"
   fill="none"
   stroke="#000"
   stroke-width="1"
   stroke-linecap="round"
   stroke-linejoin="round"
   version="1.1"
   id="svg4"
   sodipodi:docname="phone.svg"
   inkscape:version="0.92.1 r">
  <metadata
     id="metadata10">
    <rdf:RDF>
      <cc:Work
         rdf:about="">
        <dc:format>image/svg+xml</dc:format>
        <dc:type
           rdf:resource="http://purl.org/dc/dcmitype/StillImage" />
      </cc:Work>
    </rdf:RDF>
  </metadata>
  <defs
     id="defs8" />
  <sodipodi:namedview
     pagecolor="#ffffff"
     bordercolor="#666666"
     borderopacity="1"
     objecttolerance="10"
     gridtolerance="10"
     guidetolerance="10"
     inkscape:pageopacity="0"
     inkscape:pageshadow="2"
     inkscape:window-width="640"
     inkscape:window-height="480"
     id="namedview6"
     showgrid="false"
     inkscape:zoom="9.8333333"
     inkscape:cx="12"
     inkscape:cy="12"
     inkscape:current-layer="svg4" />
  <path
     style="color:#000000;font-style:normal;font-variant:normal;font-weight:normal;font-stretch:normal;font-size:medium;line-height:normal;font-family:sans-serif;font-variant-ligatures:normal;font-variant-position:normal;font-variant-caps:normal;font-variant-numeric:normal;font-variant-alternates:normal;font-feature-settings:normal;text-indent:0;text-align:start;text-decoration:none;text-decoration-line:none;text-decoration-style:solid;text-decoration-color:#000000;letter-spacing:normal;word-spacing:normal;text-transform:none;writing-mode:lr-tb;direction:ltr;text-orientation:mixed;dominant-baseline:auto;baseline-shift:baseline;text-anchor:start;white-space:normal;shape-padding:0;clip-rule:nonzero;display:inline;overflow:visible;visibility:visible;opacity:1;isolation:auto;mix-blend-mode:normal;color-interpolation:sRGB;color-interpolation-filters:linearRGB;solid-color:#000000;solid-opacity:1;vector-effect:none;fill:#000000;fill-opacity:1;fill-rule:nonzero;stroke:none;stroke-width:1;stroke-linecap:butt;stroke-linejoin:miter;stroke-miterlimit:4;stroke-dasharray:none;stroke-dashoffset:0;stroke-opacity:1;color-rendering:auto;image-rendering:auto;shape-rendering:auto;text-rendering:auto;enable-background:accumulate"
     d="M 4.109375,1.5 C 2.6485311,1.5013757 1.4896171,2.7696933 1.6210938,4.2246094 a 0.50005,0.50005 0 0 0 0.00195,0.00781 c 0.3365346,3.1690748 1.4137715,6.2139761 3.1464843,8.8886721 1.5736752,2.475332 3.6731055,4.574762 6.1484378,6.148437 2.662601,1.726687 5.692759,2.805632 8.847656,3.148438 a 0.50005,0.50005 0 0 0 0.0098,0 c 1.459766,0.131926 2.730558,-1.034296 2.724609,-2.5 v -2.986328 c 0.03139,-1.264938 -0.89747,-2.360353 -2.150391,-2.53711 a 0.50005,0.50005 0 0 0 -0.0039,0 C 19.423022,14.272839 18.516475,14.04607 17.644531,13.720703 l 0.002,0.002 c -0.912454,-0.34299 -1.945545,-0.122913 -2.638672,0.5625 a 0.50005,0.50005 0 0 0 -0.002,0.002 L 14.042969,15.25 C 11.868769,13.943373 10.056627,12.131231 8.75,9.9570312 L 9.7128906,8.9941406 a 0.50005,0.50005 0 0 0 0.00195,-0.00195 C 10.400257,8.2990608 10.620334,7.2659701 10.277344,6.3535156 l 0.002,0.00195 C 9.9539296,5.4835252 9.727161,4.5769779 9.6054688,3.6542969 a 0.50005,0.50005 0 0 0 0,-0.00391 C 9.4303861,2.4116793 8.3564316,1.4876879 7.1054688,1.5 Z m 0,1 h 3 a 0.50005,0.50005 0 0 0 0.00586,0 c 0.7567652,-0.00745 1.3940844,0.5397088 1.5,1.2890625 0.1316709,0.9961497 0.3752717,1.9746004 0.7265625,2.9160156 0.2064795,0.5492956 0.074727,1.1667237 -0.3378907,1.5839844 L 7.7363281,9.5566406 A 0.50005,0.50005 0 0 0 7.65625,10.15625 c 1.4680273,2.581757 3.605743,4.719473 6.1875,6.1875 a 0.50005,0.50005 0 0 0 0.599609,-0.08008 l 1.267579,-1.267578 c 0.41726,-0.412617 1.034688,-0.54437 1.583984,-0.337891 0.941415,0.351291 1.919866,0.594892 2.916016,0.726563 0.758204,0.106964 1.308056,0.75796 1.289062,1.523437 a 0.50005,0.50005 0 0 0 0,0.01172 v 3 a 0.50005,0.50005 0 0 0 0,0.002 c 0.0036,0.892025 -0.746354,1.58029 -1.634766,1.5 -2.996536,-0.326872 -5.873213,-1.352056 -8.402343,-2.992187 a 0.50005,0.50005 0 0 0 -0.0039,-0.002 C 9.1047567,16.93176 7.1073023,14.936259 5.6113281,12.582031 a 0.50005,0.50005 0 0 0 -0.00195,-0.0039 C 3.9628179,10.036423 2.939604,7.1422476 2.6191406,4.1308594 2.5420572,3.2482635 3.2229955,2.5019352 4.109375,2.5 Z"
     id="path2"
     inkscape:connector-curvature="0" />
</svg>
