<?xml version="1.0" standalone="no"?><!-- Generator: Gravit.io --><svg xmlns="http://www.w3.org/2000/svg" xmlns:xlink="http://www.w3.org/1999/xlink" style="isolation:isolate" viewBox="0 0 24 24" width="24" height="24"><defs><clipPath id="_clipPath_q0mZ39FwPT6jpIV3J6hdNnqo3jWLN59u"><rect width="24" height="24"/></clipPath></defs><g clip-path="url(#_clipPath_q0mZ39FwPT6jpIV3J6hdNnqo3jWLN59u)"><path d=" M 4.109 1.5 C 2.649 1.501 1.49 2.77 1.621 4.225 C 1.622 4.227 1.622 4.23 1.623 4.232 C 1.96 7.401 3.037 10.446 4.77 13.121 C 6.343 15.596 8.443 17.696 10.918 19.27 C 13.581 20.996 16.611 22.075 19.766 22.418 C 19.769 22.418 19.772 22.418 19.775 22.418 C 21.235 22.55 22.506 21.384 22.5 19.918 L 22.5 16.932 C 22.531 15.667 21.603 14.571 20.35 14.395 C 20.348 14.395 20.347 14.395 20.346 14.395 C 19.423 14.273 18.516 14.046 17.645 13.721 L 17.647 13.723 C 16.734 13.38 15.701 13.6 15.008 14.285 C 15.007 14.286 15.007 14.287 15.006 14.287 L 14.043 15.25 C 11.869 13.943 10.057 12.131 8.75 9.957 L 9.713 8.994 C 9.714 8.993 9.714 8.993 9.715 8.992 C 10.4 8.299 10.62 7.266 10.277 6.354 L 10.279 6.355 C 9.954 5.484 9.727 4.577 9.605 3.654 C 9.605 3.653 9.605 3.652 9.605 3.65 C 9.43 2.412 8.356 1.488 7.105 1.5 L 4.109 1.5 Z  M 4.109 2.5 L 7.109 2.5 C 7.111 2.5 7.113 2.5 7.115 2.5 C 7.872 2.493 8.509 3.04 8.615 3.789 C 8.747 4.785 8.991 5.764 9.342 6.705 C 9.548 7.254 9.417 7.872 9.004 8.289 L 7.736 9.557 C 7.578 9.716 7.545 9.961 7.656 10.156 C 9.124 12.738 11.262 14.876 13.844 16.344 C 14.039 16.455 14.284 16.422 14.443 16.264 L 15.711 14.996 C 16.128 14.583 16.746 14.452 17.295 14.658 C 18.236 15.009 19.215 15.253 20.211 15.385 C 20.969 15.492 21.519 16.143 21.5 16.908 C 21.5 16.912 21.5 16.916 21.5 16.92 L 21.5 19.92 C 21.5 19.921 21.5 19.921 21.5 19.922 C 21.504 20.814 20.754 21.502 19.865 21.422 C 16.869 21.095 13.992 20.07 11.463 18.43 C 11.462 18.429 11.46 18.428 11.459 18.428 C 9.105 16.932 7.107 14.936 5.611 12.582 C 5.611 12.581 5.61 12.579 5.609 12.578 C 3.963 10.036 2.94 7.142 2.619 4.131 C 2.542 3.248 3.223 2.502 4.109 2.5 Z " fill="rgb(0,0,0)"/><g id="pause"><path d=" M 17.992 0.494 C 17.86 0.496 17.733 0.551 17.641 0.646 C 17.549 0.741 17.498 0.869 17.5 1.002 L 17.5 7.002 C 17.497 7.182 17.592 7.35 17.748 7.441 C 17.904 7.532 18.096 7.532 18.252 7.441 C 18.408 7.35 18.503 7.182 18.5 7.002 L 18.5 1.002 C 18.502 0.867 18.449 0.736 18.354 0.641 C 18.258 0.545 18.128 0.492 17.992 0.494 Z " fill="rgb(0,0,0)"/><path d=" M 21.992 0.494 C 21.86 0.496 21.733 0.551 21.641 0.646 C 21.549 0.741 21.498 0.869 21.5 1.002 L 21.5 7.002 C 21.497 7.182 21.592 7.35 21.748 7.441 C 21.904 7.532 22.096 7.532 22.252 7.441 C 22.408 7.35 22.503 7.182 22.5 7.002 L 22.5 1.002 C 22.502 0.867 22.449 0.736 22.354 0.641 C 22.258 0.545 22.128 0.492 21.992 0.494 Z " fill="rgb(0,0,0)"/></g></g></svg>