<?xml version="1.0" encoding="UTF-8" standalone="no"?>
<svg
   xmlns:dc="http://purl.org/dc/elements/1.1/"
   xmlns:cc="http://creativecommons.org/ns#"
   xmlns:rdf="http://www.w3.org/1999/02/22-rdf-syntax-ns#"
   xmlns:svg="http://www.w3.org/2000/svg"
   xmlns="http://www.w3.org/2000/svg"
   xmlns:sodipodi="http://sodipodi.sourceforge.net/DTD/sodipodi-0.dtd"
   xmlns:inkscape="http://www.inkscape.org/namespaces/inkscape"
   width="24"
   height="24"
   viewBox="0 0 24 24"
   fill="none"
   stroke="#000"
   stroke-width="1"
   stroke-linecap="round"
   stroke-linejoin="round"
   version="1.1"
   id="svg6"
   sodipodi:docname="phone-off.svg"
   inkscape:version="0.92.1 r">
  <metadata
     id="metadata12">
    <rdf:RDF>
      <cc:Work
         rdf:about="">
        <dc:format>image/svg+xml</dc:format>
        <dc:type
           rdf:resource="http://purl.org/dc/dcmitype/StillImage" />
      </cc:Work>
    </rdf:RDF>
  </metadata>
  <defs
     id="defs10" />
  <sodipodi:namedview
     pagecolor="#ffffff"
     bordercolor="#666666"
     borderopacity="1"
     objecttolerance="10"
     gridtolerance="10"
     guidetolerance="10"
     inkscape:pageopacity="0"
     inkscape:pageshadow="2"
     inkscape:window-width="640"
     inkscape:window-height="480"
     id="namedview8"
     showgrid="false"
     inkscape:zoom="9.8333333"
     inkscape:cx="12"
     inkscape:cy="12"
     inkscape:current-layer="svg6" />
  <path
     style="color:#000000;font-style:normal;font-variant:normal;font-weight:normal;font-stretch:normal;font-size:medium;line-height:normal;font-family:sans-serif;font-variant-ligatures:normal;font-variant-position:normal;font-variant-caps:normal;font-variant-numeric:normal;font-variant-alternates:normal;font-feature-settings:normal;text-indent:0;text-align:start;text-decoration:none;text-decoration-line:none;text-decoration-style:solid;text-decoration-color:#000000;letter-spacing:normal;word-spacing:normal;text-transform:none;writing-mode:lr-tb;direction:ltr;text-orientation:mixed;dominant-baseline:auto;baseline-shift:baseline;text-anchor:start;white-space:normal;shape-padding:0;clip-rule:nonzero;display:inline;overflow:visible;visibility:visible;opacity:1;isolation:auto;mix-blend-mode:normal;color-interpolation:sRGB;color-interpolation-filters:linearRGB;solid-color:#000000;solid-opacity:1;vector-effect:none;fill:#000000;fill-opacity:1;fill-rule:nonzero;stroke:none;stroke-width:1;stroke-linecap:butt;stroke-linejoin:miter;stroke-miterlimit:4;stroke-dasharray:none;stroke-dashoffset:0;stroke-opacity:1;color-rendering:auto;image-rendering:auto;shape-rendering:auto;text-rendering:auto;enable-background:accumulate"
     d="M 4.109375,1.5 C 2.6485311,1.5013757 1.4896171,2.7696933 1.6210938,4.2246094 a 0.50005,0.50005 0 0 0 0.00195,0.00977 c 0.3428053,3.1548973 1.4197973,6.185055 3.1464843,8.847656 A 0.50056907,0.50056907 0 1 0 5.609375,12.537109 C 3.968548,10.006907 2.9455596,7.1287666 2.6191406,4.1308594 2.5420572,3.2482635 3.2229955,2.5019352 4.109375,2.5 h 3 a 0.50005,0.50005 0 0 0 0.00586,0 c 0.7567652,-0.00745 1.3940844,0.5397088 1.5,1.2890625 0.1316709,0.9961497 0.3752717,1.9746004 0.7265625,2.9160156 0.2064795,0.5492956 0.074727,1.1667237 -0.3378907,1.5839844 L 7.7363281,9.5566406 A 0.50005,0.50005 0 1 0 8.4433594,10.263672 L 9.7128906,8.9941406 a 0.50005,0.50005 0 0 0 0.00195,-0.00195 C 10.400257,8.2990608 10.620334,7.2659701 10.277344,6.3535156 l 0.002,0.00195 C 9.9539296,5.4835252 9.727161,4.5769779 9.6054688,3.6542969 a 0.50005,0.50005 0 0 0 0,-0.00391 C 9.4303861,2.4116793 8.3564316,1.4876879 7.1054688,1.5 Z m 6.566406,11.304688 a 0.50005,0.50005 0 0 0 -0.349609,0.859374 c 1.046568,1.047491 2.230393,1.947777 3.517578,2.679688 a 0.50005,0.50005 0 0 0 0.599609,-0.08008 l 1.267579,-1.267578 c 0.41726,-0.412617 1.034688,-0.54437 1.583984,-0.337891 0.941415,0.351291 1.919866,0.594892 2.916016,0.726563 0.749353,0.105915 1.29651,0.743234 1.289062,1.5 a 0.50005,0.50005 0 0 0 0,0.0059 v 3 a 0.50005,0.50005 0 0 0 0,0.002 c 0.0036,0.890438 -0.744521,1.575467 -1.630859,1.498047 -2.997908,-0.326419 -5.876048,-1.349407 -8.40625,-2.990234 a 0.50005,0.50005 0 0 0 -0.0039,-0.002 C 10.285272,17.653187 9.1954515,16.780528 8.2128906,15.796875 a 0.50005,0.50005 0 1 0 -0.7070312,0.707031 c 1.0334839,1.034633 2.1777429,1.952193 3.4121096,2.736328 2.662601,1.726687 5.692759,2.803679 8.847656,3.146485 a 0.50005,0.50005 0 0 0 0.0098,0.002 c 1.459766,0.131926 2.730558,-1.034296 2.724609,-2.5 v -2.994141 c 0.01231,-1.250963 -0.911679,-2.324917 -2.150391,-2.5 a 0.50005,0.50005 0 0 0 -0.0039,0 C 19.423022,14.272839 18.516475,14.04607 17.644531,13.720703 l 0.002,0.002 c -0.912454,-0.34299 -1.945545,-0.122913 -2.638672,0.5625 a 0.50005,0.50005 0 0 0 -0.002,0.002 L 14.042969,15.25 c -1.085122,-0.651983 -2.114354,-1.396768 -3.009766,-2.292969 a 0.50005,0.50005 0 0 0 -0.357422,-0.152343 z"
     id="path2"
     inkscape:connector-curvature="0" />
  <path
     style="color:#000000;font-style:normal;font-variant:normal;font-weight:normal;font-stretch:normal;font-size:medium;line-height:normal;font-family:sans-serif;font-variant-ligatures:normal;font-variant-position:normal;font-variant-caps:normal;font-variant-numeric:normal;font-variant-alternates:normal;font-feature-settings:normal;text-indent:0;text-align:start;text-decoration:none;text-decoration-line:none;text-decoration-style:solid;text-decoration-color:#000000;letter-spacing:normal;word-spacing:normal;text-transform:none;writing-mode:lr-tb;direction:ltr;text-orientation:mixed;dominant-baseline:auto;baseline-shift:baseline;text-anchor:start;white-space:normal;shape-padding:0;clip-rule:nonzero;display:inline;overflow:visible;visibility:visible;opacity:1;isolation:auto;mix-blend-mode:normal;color-interpolation:sRGB;color-interpolation-filters:linearRGB;solid-color:#000000;solid-opacity:1;vector-effect:none;fill:#000000;fill-opacity:1;fill-rule:nonzero;stroke:none;stroke-width:1;stroke-linecap:butt;stroke-linejoin:miter;stroke-miterlimit:4;stroke-dasharray:none;stroke-dashoffset:0;stroke-opacity:1;color-rendering:auto;image-rendering:auto;shape-rendering:auto;text-rendering:auto;enable-background:accumulate"
     d="m 22.990234,0.49609375 a 0.50005,0.50005 0 0 0 -0.34375,0.15039063 L 0.64648438,22.646484 A 0.50005,0.50005 0 1 0 1.3535156,23.353516 L 23.353516,1.3535156 A 0.50005,0.50005 0 0 0 22.990234,0.49609375 Z"
     id="line4"
     inkscape:connector-curvature="0" />
</svg>
