<?xml version="1.0" encoding="UTF-8" standalone="no"?>
<svg
   xmlns:dc="http://purl.org/dc/elements/1.1/"
   xmlns:cc="http://creativecommons.org/ns#"
   xmlns:rdf="http://www.w3.org/1999/02/22-rdf-syntax-ns#"
   xmlns:svg="http://www.w3.org/2000/svg"
   xmlns="http://www.w3.org/2000/svg"
   xmlns:sodipodi="http://sodipodi.sourceforge.net/DTD/sodipodi-0.dtd"
   xmlns:inkscape="http://www.inkscape.org/namespaces/inkscape"
   width="24"
   height="24"
   viewBox="0 0 24 24"
   fill="none"
   stroke="#000"
   stroke-width="1"
   stroke-linecap="round"
   stroke-linejoin="round"
   version="1.1"
   id="svg4"
   sodipodi:docname="star.svg"
   inkscape:version="0.92.1 r">
  <metadata
     id="metadata10">
    <rdf:RDF>
      <cc:Work
         rdf:about="">
        <dc:format>image/svg+xml</dc:format>
        <dc:type
           rdf:resource="http://purl.org/dc/dcmitype/StillImage" />
      </cc:Work>
    </rdf:RDF>
  </metadata>
  <defs
     id="defs8" />
  <sodipodi:namedview
     pagecolor="#ffffff"
     bordercolor="#666666"
     borderopacity="1"
     objecttolerance="10"
     gridtolerance="10"
     guidetolerance="10"
     inkscape:pageopacity="0"
     inkscape:pageshadow="2"
     inkscape:window-width="640"
     inkscape:window-height="480"
     id="namedview6"
     showgrid="false"
     inkscape:zoom="9.8333333"
     inkscape:cx="12"
     inkscape:cy="12"
     inkscape:current-layer="svg4" />
  <path
     style="color:#000000;font-style:normal;font-variant:normal;font-weight:normal;font-stretch:normal;font-size:medium;line-height:normal;font-family:sans-serif;font-variant-ligatures:normal;font-variant-position:normal;font-variant-caps:normal;font-variant-numeric:normal;font-variant-alternates:normal;font-feature-settings:normal;text-indent:0;text-align:start;text-decoration:none;text-decoration-line:none;text-decoration-style:solid;text-decoration-color:#000000;letter-spacing:normal;word-spacing:normal;text-transform:none;writing-mode:lr-tb;direction:ltr;text-orientation:mixed;dominant-baseline:auto;baseline-shift:baseline;text-anchor:start;white-space:normal;shape-padding:0;clip-rule:nonzero;display:inline;overflow:visible;visibility:visible;opacity:1;isolation:auto;mix-blend-mode:normal;color-interpolation:sRGB;color-interpolation-filters:linearRGB;solid-color:#000000;solid-opacity:1;vector-effect:none;fill:#000000;fill-opacity:1;fill-rule:nonzero;stroke:none;stroke-width:1;stroke-linecap:butt;stroke-linejoin:miter;stroke-miterlimit:4;stroke-dasharray:none;stroke-dashoffset:0;stroke-opacity:1;color-rendering:auto;image-rendering:auto;shape-rendering:auto;text-rendering:auto;enable-background:accumulate"
     d="M 12.005859,1.5 A 0.50005,0.50005 0 0 0 11.550781,1.7792969 L 8.578125,7.8027344 1.9277344,8.7753906 A 0.50005,0.50005 0 0 0 1.6503906,9.6289062 l 4.8125,4.6855468 -1.1347656,6.621094 a 0.50005,0.50005 0 0 0 0.7246094,0.527344 L 12,18.333984 l 5.947266,3.128907 a 0.50005,0.50005 0 0 0 0.724609,-0.527344 l -1.134766,-6.621094 4.8125,-4.6855468 A 0.50005,0.50005 0 0 0 22.072266,8.7753906 L 15.421875,7.8027344 12.449219,1.7792969 A 0.50005,0.50005 0 0 0 12.005859,1.5 Z M 12,3.1308594 14.642578,8.4804688 a 0.50005,0.50005 0 0 0 0.375,0.2734374 l 5.90625,0.8652344 -4.273437,4.1621094 a 0.50005,0.50005 0 0 0 -0.142579,0.443359 l 1.007813,5.882813 -5.283203,-2.779297 a 0.50005,0.50005 0 0 0 -0.464844,0 L 6.484375,20.107422 7.4921875,14.224609 A 0.50005,0.50005 0 0 0 7.3496094,13.78125 L 3.0761719,9.6191406 8.9824219,8.7539062 a 0.50005,0.50005 0 0 0 0.375,-0.2734374 z"
     id="polygon2"
     inkscape:connector-curvature="0" />
</svg>
