<?xml version="1.0" encoding="UTF-8" standalone="no"?>
<svg
   xmlns:dc="http://purl.org/dc/elements/1.1/"
   xmlns:cc="http://creativecommons.org/ns#"
   xmlns:rdf="http://www.w3.org/1999/02/22-rdf-syntax-ns#"
   xmlns:svg="http://www.w3.org/2000/svg"
   xmlns="http://www.w3.org/2000/svg"
   xmlns:sodipodi="http://sodipodi.sourceforge.net/DTD/sodipodi-0.dtd"
   xmlns:inkscape="http://www.inkscape.org/namespaces/inkscape"
   width="24"
   height="24"
   viewBox="0 0 24 24"
   fill="none"
   stroke="#000"
   stroke-width="1"
   stroke-linecap="round"
   stroke-linejoin="round"
   version="1.1"
   id="svg4"
   sodipodi:docname="wind.svg"
   inkscape:version="0.92.1 r">
  <metadata
     id="metadata10">
    <rdf:RDF>
      <cc:Work
         rdf:about="">
        <dc:format>image/svg+xml</dc:format>
        <dc:type
           rdf:resource="http://purl.org/dc/dcmitype/StillImage" />
      </cc:Work>
    </rdf:RDF>
  </metadata>
  <defs
     id="defs8" />
  <sodipodi:namedview
     pagecolor="#ffffff"
     bordercolor="#666666"
     borderopacity="1"
     objecttolerance="10"
     gridtolerance="10"
     guidetolerance="10"
     inkscape:pageopacity="0"
     inkscape:pageshadow="2"
     inkscape:window-width="640"
     inkscape:window-height="480"
     id="namedview6"
     showgrid="false"
     inkscape:zoom="9.8333333"
     inkscape:cx="12"
     inkscape:cy="12"
     inkscape:current-layer="svg4" />
  <path
     style="color:#000000;font-style:normal;font-variant:normal;font-weight:normal;font-stretch:normal;font-size:medium;line-height:normal;font-family:sans-serif;font-variant-ligatures:normal;font-variant-position:normal;font-variant-caps:normal;font-variant-numeric:normal;font-variant-alternates:normal;font-feature-settings:normal;text-indent:0;text-align:start;text-decoration:none;text-decoration-line:none;text-decoration-style:solid;text-decoration-color:#000000;letter-spacing:normal;word-spacing:normal;text-transform:none;writing-mode:lr-tb;direction:ltr;text-orientation:mixed;dominant-baseline:auto;baseline-shift:baseline;text-anchor:start;white-space:normal;shape-padding:0;clip-rule:nonzero;display:inline;overflow:visible;visibility:visible;opacity:1;isolation:auto;mix-blend-mode:normal;color-interpolation:sRGB;color-interpolation-filters:linearRGB;solid-color:#000000;solid-opacity:1;vector-effect:none;fill:#000000;fill-opacity:1;fill-rule:nonzero;stroke:none;stroke-width:1;stroke-linecap:butt;stroke-linejoin:miter;stroke-miterlimit:4;stroke-dasharray:none;stroke-dashoffset:0;stroke-opacity:1;color-rendering:auto;image-rendering:auto;shape-rendering:auto;text-rendering:auto;enable-background:accumulate"
     d="M 11.490234,3.5585938 C 10.709641,3.4042716 9.8594849,3.6114212 9.2363281,4.2382812 A 0.50005,0.50005 0 1 0 9.9453125,4.9433594 C 10.713132,4.1709772 11.978382,4.4213014 12.394531,5.4277344 12.810681,6.4341674 12.091035,7.5045726 11.001953,7.5 A 0.50005,0.50005 0 0 0 11,7.5 H 2 a 0.50005,0.50005 0 1 0 0,1 h 8.998047 C 12.76583,8.5074222 13.99385,6.678556 13.318359,5.0449219 12.980614,4.2281048 12.270827,3.7129159 11.490234,3.5585938 Z m 8.589844,3.0097656 c -0.933591,-0.1861948 -1.953152,0.060518 -2.703125,0.8085937 a 0.50005,0.50005 0 1 0 0.707031,0.7070313 C 19.104639,7.0659108 20.791732,7.4026715 21.34375,8.734375 21.895768,10.066078 20.941598,11.497421 19.5,11.5 H 2 a 0.50005,0.50005 0 1 0 0,1 h 17.5 c 2.118559,-0.0038 3.57882,-2.191373 2.767578,-4.1484375 -0.405621,-0.9785324 -1.253909,-1.5970084 -2.1875,-1.7832031 z M 2,15.5 a 0.50005,0.50005 0 1 0 0,1 h 12 a 0.50005,0.50005 0 0 0 0.002,0 c 1.089082,-0.0046 1.808728,1.065833 1.392578,2.072266 -0.416149,1.006433 -1.681399,1.256757 -2.449219,0.484375 a 0.50005,0.50005 0 1 0 -0.708984,0.705078 c 1.246314,1.25372 3.40654,0.826993 4.082031,-0.806641 C 16.993593,17.322067 15.766698,15.49398 14,15.5 Z"
     id="path2"
     inkscape:connector-curvature="0" />
</svg>
