<?xml version="1.0" encoding="UTF-8" standalone="no"?>
<svg
   xmlns:dc="http://purl.org/dc/elements/1.1/"
   xmlns:cc="http://creativecommons.org/ns#"
   xmlns:rdf="http://www.w3.org/1999/02/22-rdf-syntax-ns#"
   xmlns:svg="http://www.w3.org/2000/svg"
   xmlns="http://www.w3.org/2000/svg"
   xmlns:sodipodi="http://sodipodi.sourceforge.net/DTD/sodipodi-0.dtd"
   xmlns:inkscape="http://www.inkscape.org/namespaces/inkscape"
   width="24"
   height="24"
   viewBox="0 0 24 24"
   fill="none"
   stroke="#000"
   stroke-width="1"
   stroke-linecap="round"
   stroke-linejoin="round"
   version="1.1"
   id="svg4"
   sodipodi:docname="command.svg"
   inkscape:version="0.92.1 r">
  <metadata
     id="metadata10">
    <rdf:RDF>
      <cc:Work
         rdf:about="">
        <dc:format>image/svg+xml</dc:format>
        <dc:type
           rdf:resource="http://purl.org/dc/dcmitype/StillImage" />
      </cc:Work>
    </rdf:RDF>
  </metadata>
  <defs
     id="defs8" />
  <sodipodi:namedview
     pagecolor="#ffffff"
     bordercolor="#666666"
     borderopacity="1"
     objecttolerance="10"
     gridtolerance="10"
     guidetolerance="10"
     inkscape:pageopacity="0"
     inkscape:pageshadow="2"
     inkscape:window-width="640"
     inkscape:window-height="480"
     id="namedview6"
     showgrid="false"
     inkscape:zoom="9.8333333"
     inkscape:cx="12"
     inkscape:cy="12"
     inkscape:current-layer="svg4" />
  <path
     style="color:#000000;font-style:normal;font-variant:normal;font-weight:normal;font-stretch:normal;font-size:medium;line-height:normal;font-family:sans-serif;font-variant-ligatures:normal;font-variant-position:normal;font-variant-caps:normal;font-variant-numeric:normal;font-variant-alternates:normal;font-feature-settings:normal;text-indent:0;text-align:start;text-decoration:none;text-decoration-line:none;text-decoration-style:solid;text-decoration-color:#000000;letter-spacing:normal;word-spacing:normal;text-transform:none;writing-mode:lr-tb;direction:ltr;text-orientation:mixed;dominant-baseline:auto;baseline-shift:baseline;text-anchor:start;white-space:normal;shape-padding:0;clip-rule:nonzero;display:inline;overflow:visible;visibility:visible;opacity:1;isolation:auto;mix-blend-mode:normal;color-interpolation:sRGB;color-interpolation-filters:linearRGB;solid-color:#000000;solid-opacity:1;vector-effect:none;fill:#000000;fill-opacity:1;fill-rule:nonzero;stroke:none;stroke-width:1;stroke-linecap:butt;stroke-linejoin:miter;stroke-miterlimit:4;stroke-dasharray:none;stroke-dashoffset:0;stroke-opacity:1;color-rendering:auto;image-rendering:auto;shape-rendering:auto;text-rendering:auto;enable-background:accumulate"
     d="M 6,2.5 C 4.0729257,2.5 2.5,4.0729257 2.5,6 2.5,7.9270743 4.0729257,9.5 6,9.5 h 2.5 v 5 H 6 c -1.9270743,0 -3.5,1.572926 -3.5,3.5 0,1.927074 1.5729257,3.5 3.5,3.5 1.9270743,0 3.5,-1.572926 3.5,-3.5 v -2.5 h 5 V 18 c 0,1.927074 1.572926,3.5 3.5,3.5 1.927074,0 3.5,-1.572926 3.5,-3.5 0,-1.927074 -1.572926,-3.5 -3.5,-3.5 h -2.5 v -5 H 18 C 19.927074,9.5 21.5,7.9270743 21.5,6 21.5,4.0729257 19.927074,2.5 18,2.5 16.072926,2.5 14.5,4.0729257 14.5,6 v 2.5 h -5 V 6 C 9.5,4.0729257 7.9270743,2.5 6,2.5 Z m 0,1 C 7.3866342,3.5 8.5,4.6133658 8.5,6 V 8.5 H 6 C 4.6133658,8.5 3.5,7.3866342 3.5,6 3.5,4.6133658 4.6133658,3.5 6,3.5 Z m 12,0 c 1.386634,0 2.5,1.1133658 2.5,2.5 0,1.3866342 -1.113366,2.5 -2.5,2.5 H 15.5 V 6 c 0,-1.3866342 1.113366,-2.5 2.5,-2.5 z m -8.5,6 h 5 v 5 h -5 z M 6,15.5 H 8.5 V 18 C 8.5,19.386634 7.3866342,20.5 6,20.5 4.6133658,20.5 3.5,19.386634 3.5,18 3.5,16.613366 4.6133658,15.5 6,15.5 Z m 9.5,0 H 18 c 1.386634,0 2.5,1.113366 2.5,2.5 0,1.386634 -1.113366,2.5 -2.5,2.5 -1.386634,0 -2.5,-1.113366 -2.5,-2.5 z"
     id="path2"
     inkscape:connector-curvature="0" />
</svg>
