<?xml version="1.0" encoding="UTF-8" standalone="no"?>
<svg
   xmlns:dc="http://purl.org/dc/elements/1.1/"
   xmlns:cc="http://creativecommons.org/ns#"
   xmlns:rdf="http://www.w3.org/1999/02/22-rdf-syntax-ns#"
   xmlns:svg="http://www.w3.org/2000/svg"
   xmlns="http://www.w3.org/2000/svg"
   xmlns:sodipodi="http://sodipodi.sourceforge.net/DTD/sodipodi-0.dtd"
   xmlns:inkscape="http://www.inkscape.org/namespaces/inkscape"
   width="24"
   height="24"
   viewBox="0 0 24 24"
   fill="none"
   stroke="#000"
   stroke-width="1"
   stroke-linecap="round"
   stroke-linejoin="round"
   version="1.1"
   id="svg6"
   sodipodi:docname="flag.svg"
   inkscape:version="0.92.1 r">
  <metadata
     id="metadata12">
    <rdf:RDF>
      <cc:Work
         rdf:about="">
        <dc:format>image/svg+xml</dc:format>
        <dc:type
           rdf:resource="http://purl.org/dc/dcmitype/StillImage" />
      </cc:Work>
    </rdf:RDF>
  </metadata>
  <defs
     id="defs10" />
  <sodipodi:namedview
     pagecolor="#ffffff"
     bordercolor="#666666"
     borderopacity="1"
     objecttolerance="10"
     gridtolerance="10"
     guidetolerance="10"
     inkscape:pageopacity="0"
     inkscape:pageshadow="2"
     inkscape:window-width="640"
     inkscape:window-height="480"
     id="namedview8"
     showgrid="false"
     inkscape:zoom="9.8333333"
     inkscape:cx="12"
     inkscape:cy="12"
     inkscape:current-layer="svg6" />
  <path
     style="color:#000000;font-style:normal;font-variant:normal;font-weight:normal;font-stretch:normal;font-size:medium;line-height:normal;font-family:sans-serif;font-variant-ligatures:normal;font-variant-position:normal;font-variant-caps:normal;font-variant-numeric:normal;font-variant-alternates:normal;font-feature-settings:normal;text-indent:0;text-align:start;text-decoration:none;text-decoration-line:none;text-decoration-style:solid;text-decoration-color:#000000;letter-spacing:normal;word-spacing:normal;text-transform:none;writing-mode:lr-tb;direction:ltr;text-orientation:mixed;dominant-baseline:auto;baseline-shift:baseline;text-anchor:start;white-space:normal;shape-padding:0;clip-rule:nonzero;display:inline;overflow:visible;visibility:visible;opacity:1;isolation:auto;mix-blend-mode:normal;color-interpolation:sRGB;color-interpolation-filters:linearRGB;solid-color:#000000;solid-opacity:1;vector-effect:none;fill:#000000;fill-opacity:1;fill-rule:nonzero;stroke:none;stroke-width:1;stroke-linecap:butt;stroke-linejoin:miter;stroke-miterlimit:4;stroke-dasharray:none;stroke-dashoffset:0;stroke-opacity:1;color-rendering:auto;image-rendering:auto;shape-rendering:auto;text-rendering:auto;enable-background:accumulate"
     d="M 8,1.5 C 6.4444444,1.5 5.378486,1.7595431 4.6894531,2.0351562 4.0004202,2.3107694 3.6464844,2.6464844 3.6464844,2.6464844 A 0.50005,0.50005 0 0 0 3.5,3 v 12 a 0.50005,0.50005 0 0 0 0.8535156,0.353516 c 0,0 0.1460642,-0.164285 0.7070313,-0.388672 C 5.621514,14.740457 6.5555556,14.5 8,14.5 c 1.3888889,0 2.564453,0.464844 3.814453,0.964844 1.25,0.5 2.574436,1.035156 4.185547,1.035156 1.555556,0 2.621514,-0.259543 3.310547,-0.535156 0.689033,-0.275613 1.042969,-0.611328 1.042969,-0.611328 A 0.50005,0.50005 0 0 0 20.5,15 V 3 A 0.50005,0.50005 0 0 0 19.646484,2.6464844 c 0,0 -0.146064,0.164285 -0.707031,0.3886718 C 18.378486,3.2595431 17.444444,3.5 16,3.5 14.611111,3.5 13.435547,3.0351563 12.185547,2.5351562 10.935547,2.0351562 9.6111111,1.5 8,1.5 Z m 0,1 c 1.3888889,0 2.564453,0.4648437 3.814453,0.9648438 C 13.064453,3.9648438 14.388889,4.5 16,4.5 17.555556,4.5 18.621514,4.2404569 19.310547,3.9648438 19.435789,3.9147467 19.397019,3.9051723 19.5,3.8535156 V 14.726562 c -0.0571,0.05055 -0.115652,0.130636 -0.560547,0.308594 C 18.378486,15.259543 17.444444,15.5 16,15.5 14.611111,15.5 13.435547,15.035156 12.185547,14.535156 10.935547,14.035156 9.6111111,13.5 8,13.5 6.4444444,13.5 5.378486,13.759543 4.6894531,14.035156 4.5642106,14.085253 4.6029811,14.094828 4.5,14.146484 V 3.2734375 C 4.5570958,3.2228889 4.6156522,3.1428016 5.0605469,2.9648438 5.621514,2.7404569 6.5555556,2.5 8,2.5 Z"
     id="path2"
     inkscape:connector-curvature="0" />
  <path
     style="color:#000000;font-style:normal;font-variant:normal;font-weight:normal;font-stretch:normal;font-size:medium;line-height:normal;font-family:sans-serif;font-variant-ligatures:normal;font-variant-position:normal;font-variant-caps:normal;font-variant-numeric:normal;font-variant-alternates:normal;font-feature-settings:normal;text-indent:0;text-align:start;text-decoration:none;text-decoration-line:none;text-decoration-style:solid;text-decoration-color:#000000;letter-spacing:normal;word-spacing:normal;text-transform:none;writing-mode:lr-tb;direction:ltr;text-orientation:mixed;dominant-baseline:auto;baseline-shift:baseline;text-anchor:start;white-space:normal;shape-padding:0;clip-rule:nonzero;display:inline;overflow:visible;visibility:visible;opacity:1;isolation:auto;mix-blend-mode:normal;color-interpolation:sRGB;color-interpolation-filters:linearRGB;solid-color:#000000;solid-opacity:1;vector-effect:none;fill:#000000;fill-opacity:1;fill-rule:nonzero;stroke:none;stroke-width:1;stroke-linecap:butt;stroke-linejoin:miter;stroke-miterlimit:4;stroke-dasharray:none;stroke-dashoffset:0;stroke-opacity:1;color-rendering:auto;image-rendering:auto;shape-rendering:auto;text-rendering:auto;enable-background:accumulate"
     d="M 3.9921875,14.492188 A 0.50005,0.50005 0 0 0 3.5,15 v 7 a 0.50005,0.50005 0 1 0 1,0 V 15 A 0.50005,0.50005 0 0 0 3.9921875,14.492188 Z"
     id="line4"
     inkscape:connector-curvature="0" />
</svg>
