<?xml version="1.0" encoding="UTF-8" standalone="no"?>
<svg
   xmlns:dc="http://purl.org/dc/elements/1.1/"
   xmlns:cc="http://creativecommons.org/ns#"
   xmlns:rdf="http://www.w3.org/1999/02/22-rdf-syntax-ns#"
   xmlns:svg="http://www.w3.org/2000/svg"
   xmlns="http://www.w3.org/2000/svg"
   xmlns:sodipodi="http://sodipodi.sourceforge.net/DTD/sodipodi-0.dtd"
   xmlns:inkscape="http://www.inkscape.org/namespaces/inkscape"
   width="24"
   height="24"
   viewBox="0 0 24 24"
   version="1.1"
   id="svg6"
   sodipodi:docname="link.svg"
   inkscape:version="0.92.1 r">
  <metadata
     id="metadata12">
    <rdf:RDF>
      <cc:Work
         rdf:about="">
        <dc:format>image/svg+xml</dc:format>
        <dc:type
           rdf:resource="http://purl.org/dc/dcmitype/StillImage" />
      </cc:Work>
    </rdf:RDF>
  </metadata>
  <defs
     id="defs10" />
  <sodipodi:namedview
     pagecolor="#ffffff"
     bordercolor="#666666"
     borderopacity="1"
     objecttolerance="10"
     gridtolerance="10"
     guidetolerance="10"
     inkscape:pageopacity="0"
     inkscape:pageshadow="2"
     inkscape:window-width="640"
     inkscape:window-height="480"
     id="namedview8"
     showgrid="false"
     inkscape:zoom="9.8333333"
     inkscape:cx="12"
     inkscape:cy="12"
     inkscape:current-layer="svg6" />
  <path
     style="color:#000000;font-style:normal;font-variant:normal;font-weight:normal;font-stretch:normal;font-size:medium;line-height:normal;font-family:sans-serif;font-variant-ligatures:normal;font-variant-position:normal;font-variant-caps:normal;font-variant-numeric:normal;font-variant-alternates:normal;font-feature-settings:normal;text-indent:0;text-align:start;text-decoration:none;text-decoration-line:none;text-decoration-style:solid;text-decoration-color:#000000;letter-spacing:normal;word-spacing:normal;text-transform:none;writing-mode:lr-tb;direction:ltr;text-orientation:mixed;dominant-baseline:auto;baseline-shift:baseline;text-anchor:start;white-space:normal;shape-padding:0;clip-rule:nonzero;display:inline;overflow:visible;visibility:visible;opacity:1;isolation:auto;mix-blend-mode:normal;color-interpolation:sRGB;color-interpolation-filters:linearRGB;solid-color:#000000;solid-opacity:1;vector-effect:none;fill:#000000;fill-opacity:1;fill-rule:nonzero;stroke:none;stroke-width:1;stroke-linecap:round;stroke-linejoin:miter;stroke-miterlimit:10;stroke-dasharray:none;stroke-dashoffset:0;stroke-opacity:1;color-rendering:auto;image-rendering:auto;shape-rendering:auto;text-rendering:auto;enable-background:accumulate"
     d="m 17.236328,1.4921875 c -1.37504,-0.090183 -2.845746,0.3949146 -4.113281,1.6191406 l -0.0039,0.00195 -1.720703,1.7128907 a 0.50005,0.50005 0 1 0 0.703124,0.7089843 l 1.714844,-1.7050781 c 1.088781,-1.0515801 2.249933,-1.4122232 3.353516,-1.3398437 1.103583,0.072379 2.159495,0.5989481 2.955078,1.3945312 0.795583,0.7955832 1.322152,1.8514949 1.394531,2.9550782 0.07238,1.1035832 -0.288263,2.2647343 -1.339843,3.3535152 l -2.994141,2.992188 c -1.944329,1.945034 -5.137848,1.717885 -6.785156,-0.484375 a 0.50005,0.50005 0 1 0 -0.8007816,0.597656 c 2.0009436,2.67503 5.9306996,2.955421 8.2929686,0.59375 l 3.003906,-3.001953 0.0039,-0.0039 C 22.124617,9.619184 22.607761,8.1484779 22.517578,6.7734375 22.427395,5.3983971 21.783821,4.1295237 20.832031,3.1777344 19.880242,2.225945 18.611369,1.5823707 17.236328,1.4921875 Z"
     id="path2"
     inkscape:connector-curvature="0" />
  <path
     style="color:#000000;font-style:normal;font-variant:normal;font-weight:normal;font-stretch:normal;font-size:medium;line-height:normal;font-family:sans-serif;font-variant-ligatures:normal;font-variant-position:normal;font-variant-caps:normal;font-variant-numeric:normal;font-variant-alternates:normal;font-feature-settings:normal;text-indent:0;text-align:start;text-decoration:none;text-decoration-line:none;text-decoration-style:solid;text-decoration-color:#000000;letter-spacing:normal;word-spacing:normal;text-transform:none;writing-mode:lr-tb;direction:ltr;text-orientation:mixed;dominant-baseline:auto;baseline-shift:baseline;text-anchor:start;white-space:normal;shape-padding:0;clip-rule:nonzero;display:inline;overflow:visible;visibility:visible;opacity:1;isolation:auto;mix-blend-mode:normal;color-interpolation:sRGB;color-interpolation-filters:linearRGB;solid-color:#000000;solid-opacity:1;vector-effect:none;fill:#000000;fill-opacity:1;fill-rule:nonzero;stroke:none;stroke-width:1;stroke-linecap:round;stroke-linejoin:miter;stroke-miterlimit:10;stroke-dasharray:none;stroke-dashoffset:0;stroke-opacity:1;color-rendering:auto;image-rendering:auto;shape-rendering:auto;text-rendering:auto;enable-background:accumulate"
     d="M 10.388672,8.5136719 C 8.8605999,8.4042344 7.2865363,8.925926 6.1054688,10.107422 l -3.0019532,3.001953 -0.00391,0.0039 c -1.224226,1.267535 -1.7073707,2.738241 -1.6171875,4.113281 0.090183,1.375041 0.7337575,2.643914 1.6855469,3.595704 0.9517893,0.951789 2.2206627,1.595363 3.5957031,1.685546 1.3750404,0.09018 2.8457465,-0.394914 4.1132811,-1.61914 l 0.0039,-0.002 1.712891,-1.712891 a 0.50005,0.50005 0 1 0 -0.707031,-0.707031 l -1.710938,1.708984 C 9.0893086,21.221429 7.9309684,21.581968 6.8300781,21.509766 5.7264949,21.437386 4.6705832,20.910818 3.875,20.115234 3.0794168,19.319651 2.5528482,18.263739 2.4804688,17.160156 c -0.072203,-1.10089 0.2883368,-2.25923 1.3339843,-3.345703 l 0.00195,-0.002 c 0.00185,-0.0019 0.00205,-0.0039 0.00391,-0.0059 L 6.8144531,10.814453 C 8.7587822,8.8694189 11.952301,9.0965679 13.599609,11.298828 a 0.50005,0.50005 0 1 0 0.800782,-0.597656 C 13.399746,9.3634261 11.916744,8.6231094 10.388672,8.5136719 Z"
     id="path4"
     inkscape:connector-curvature="0" />
</svg>
