<?xml version="1.0" encoding="UTF-8" standalone="no"?>
<svg
   xmlns:dc="http://purl.org/dc/elements/1.1/"
   xmlns:cc="http://creativecommons.org/ns#"
   xmlns:rdf="http://www.w3.org/1999/02/22-rdf-syntax-ns#"
   xmlns:svg="http://www.w3.org/2000/svg"
   xmlns="http://www.w3.org/2000/svg"
   xmlns:sodipodi="http://sodipodi.sourceforge.net/DTD/sodipodi-0.dtd"
   xmlns:inkscape="http://www.inkscape.org/namespaces/inkscape"
   width="24"
   height="24"
   viewBox="0 0 24 24"
   fill="none"
   stroke="#000"
   stroke-width="1"
   stroke-linecap="round"
   stroke-linejoin="round"
   version="1.1"
   id="svg4"
   sodipodi:docname="thumbs-down.svg"
   inkscape:version="0.92.1 r">
  <metadata
     id="metadata10">
    <rdf:RDF>
      <cc:Work
         rdf:about="">
        <dc:format>image/svg+xml</dc:format>
        <dc:type
           rdf:resource="http://purl.org/dc/dcmitype/StillImage" />
      </cc:Work>
    </rdf:RDF>
  </metadata>
  <defs
     id="defs8" />
  <sodipodi:namedview
     pagecolor="#ffffff"
     bordercolor="#666666"
     borderopacity="1"
     objecttolerance="10"
     gridtolerance="10"
     guidetolerance="10"
     inkscape:pageopacity="0"
     inkscape:pageshadow="2"
     inkscape:window-width="640"
     inkscape:window-height="480"
     id="namedview6"
     showgrid="false"
     inkscape:zoom="9.8333333"
     inkscape:cx="12"
     inkscape:cy="12"
     inkscape:current-layer="svg4" />
  <path
     style="color:#000000;font-style:normal;font-variant:normal;font-weight:normal;font-stretch:normal;font-size:medium;line-height:normal;font-family:sans-serif;font-variant-ligatures:normal;font-variant-position:normal;font-variant-caps:normal;font-variant-numeric:normal;font-variant-alternates:normal;font-feature-settings:normal;text-indent:0;text-align:start;text-decoration:none;text-decoration-line:none;text-decoration-style:solid;text-decoration-color:#000000;letter-spacing:normal;word-spacing:normal;text-transform:none;writing-mode:lr-tb;direction:ltr;text-orientation:mixed;dominant-baseline:auto;baseline-shift:baseline;text-anchor:start;white-space:normal;shape-padding:0;clip-rule:nonzero;display:inline;overflow:visible;visibility:visible;opacity:1;isolation:auto;mix-blend-mode:normal;color-interpolation:sRGB;color-interpolation-filters:linearRGB;solid-color:#000000;solid-opacity:1;vector-effect:none;fill:#000000;fill-opacity:1;fill-rule:nonzero;stroke:none;stroke-width:1;stroke-linecap:butt;stroke-linejoin:miter;stroke-miterlimit:4;stroke-dasharray:none;stroke-dashoffset:0;stroke-opacity:1;color-rendering:auto;image-rendering:auto;shape-rendering:auto;text-rendering:auto;enable-background:accumulate"
     d="m 5.7265625,1.5 c -1.2428539,-0.01405 -2.3136394,0.8961172 -2.5,2.125 l -1.3808594,9 c -0.2299051,1.514698 0.9680522,2.892348 2.5,2.875 H 9.5 V 19 c 0,1.927074 1.572926,3.5 3.5,3.5 a 0.50005,0.50005 0 0 0 0.457031,-0.296875 L 17.324219,13.5 h 2.33789 c 1.421007,0.02513 2.643479,-1.025191 2.833985,-2.433594 A 0.50005,0.50005 0 0 0 22.5,11 V 4 a 0.50005,0.50005 0 0 0 -0.0039,-0.066406 C 22.305588,2.5251911 21.083116,1.4748692 19.662109,1.5 H 17 Z m -0.011719,1 a 0.50005,0.50005 0 0 0 0.00586,0 H 16.5 v 10.394531 l -3.775391,8.492188 C 11.489707,21.231691 10.5,20.278789 10.5,19 V 15 A 0.50005,0.50005 0 0 0 10,14.5 H 4.3398438 a 0.50005,0.50005 0 0 0 -0.00586,0 c -0.9344842,0.01058 -1.6402416,-0.800648 -1.5,-1.724609 L 4.2148438,3.7753906 C 4.3275609,3.0321212 4.9631241,2.4915018 5.7148438,2.5 Z M 17.5,2.5 h 2.169922 a 0.50005,0.50005 0 0 0 0.0098,0 C 20.598532,2.48375 21.372382,3.1495552 21.5,4.0585938 V 10.941406 C 21.372382,11.850445 20.598532,12.51625 19.679688,12.5 a 0.50005,0.50005 0 0 0 -0.0098,0 H 17.5 Z"
     id="path2"
     inkscape:connector-curvature="0" />
</svg>
