<?xml version="1.0" encoding="UTF-8" standalone="no"?>
<svg
   xmlns:dc="http://purl.org/dc/elements/1.1/"
   xmlns:cc="http://creativecommons.org/ns#"
   xmlns:rdf="http://www.w3.org/1999/02/22-rdf-syntax-ns#"
   xmlns:svg="http://www.w3.org/2000/svg"
   xmlns="http://www.w3.org/2000/svg"
   xmlns:sodipodi="http://sodipodi.sourceforge.net/DTD/sodipodi-0.dtd"
   xmlns:inkscape="http://www.inkscape.org/namespaces/inkscape"
   width="24"
   height="24"
   viewBox="0 0 24 24"
   fill="none"
   stroke="#000"
   stroke-width="1"
   stroke-linecap="round"
   stroke-linejoin="round"
   version="1.1"
   id="svg4"
   sodipodi:docname="thumbs-up.svg"
   inkscape:version="0.92.1 r">
  <metadata
     id="metadata10">
    <rdf:RDF>
      <cc:Work
         rdf:about="">
        <dc:format>image/svg+xml</dc:format>
        <dc:type
           rdf:resource="http://purl.org/dc/dcmitype/StillImage" />
      </cc:Work>
    </rdf:RDF>
  </metadata>
  <defs
     id="defs8" />
  <sodipodi:namedview
     pagecolor="#ffffff"
     bordercolor="#666666"
     borderopacity="1"
     objecttolerance="10"
     gridtolerance="10"
     guidetolerance="10"
     inkscape:pageopacity="0"
     inkscape:pageshadow="2"
     inkscape:window-width="640"
     inkscape:window-height="480"
     id="namedview6"
     showgrid="false"
     inkscape:zoom="9.8333333"
     inkscape:cx="12"
     inkscape:cy="12"
     inkscape:current-layer="svg4" />
  <path
     style="color:#000000;font-style:normal;font-variant:normal;font-weight:normal;font-stretch:normal;font-size:medium;line-height:normal;font-family:sans-serif;font-variant-ligatures:normal;font-variant-position:normal;font-variant-caps:normal;font-variant-numeric:normal;font-variant-alternates:normal;font-feature-settings:normal;text-indent:0;text-align:start;text-decoration:none;text-decoration-line:none;text-decoration-style:solid;text-decoration-color:#000000;letter-spacing:normal;word-spacing:normal;text-transform:none;writing-mode:lr-tb;direction:ltr;text-orientation:mixed;dominant-baseline:auto;baseline-shift:baseline;text-anchor:start;white-space:normal;shape-padding:0;clip-rule:nonzero;display:inline;overflow:visible;visibility:visible;opacity:1;isolation:auto;mix-blend-mode:normal;color-interpolation:sRGB;color-interpolation-filters:linearRGB;solid-color:#000000;solid-opacity:1;vector-effect:none;fill:#000000;fill-opacity:1;fill-rule:nonzero;stroke:none;stroke-width:1;stroke-linecap:butt;stroke-linejoin:miter;stroke-miterlimit:4;stroke-dasharray:none;stroke-dashoffset:0;stroke-opacity:1;color-rendering:auto;image-rendering:auto;shape-rendering:auto;text-rendering:auto;enable-background:accumulate"
     d="M 11,1.5 A 0.50005,0.50005 0 0 0 10.542969,1.796875 L 6.6757812,10.5 H 4 c -1.3747896,0 -2.5,1.12521 -2.5,2.5 v 7 c 0,1.37479 1.1252104,2.5 2.5,2.5 h 3 11.273438 c 1.242853,0.01405 2.313639,-0.896117 2.5,-2.125 l 1.380859,-9 c 0.229905,-1.5146976 -0.968052,-2.8923485 -2.5,-2.875 H 14.5 V 5 C 14.5,3.0729257 12.927074,1.5 11,1.5 Z m 0.275391,1.1132812 C 12.510293,2.7683087 13.5,3.7212107 13.5,5 V 9 A 0.50005,0.50005 0 0 0 14,9.5 h 5.660156 a 0.50005,0.50005 0 0 0 0.0059,0 c 0.934484,-0.010582 1.640241,0.800648 1.5,1.724609 l -1.38086,9 c -0.112717,0.74327 -0.74828,1.283889 -1.5,1.275391 a 0.50005,0.50005 0 0 0 -0.0059,0 H 7.5 V 11.105469 Z M 4,11.5 h 2.5 v 10 H 4 C 3.1656506,21.5 2.5,20.834349 2.5,20 v -7 c 0,-0.834349 0.6656506,-1.5 1.5,-1.5 z"
     id="path2"
     inkscape:connector-curvature="0" />
</svg>
