<?xml version="1.0" encoding="UTF-8" standalone="no"?>
<svg
   xmlns:dc="http://purl.org/dc/elements/1.1/"
   xmlns:cc="http://creativecommons.org/ns#"
   xmlns:rdf="http://www.w3.org/1999/02/22-rdf-syntax-ns#"
   xmlns:svg="http://www.w3.org/2000/svg"
   xmlns="http://www.w3.org/2000/svg"
   xmlns:sodipodi="http://sodipodi.sourceforge.net/DTD/sodipodi-0.dtd"
   xmlns:inkscape="http://www.inkscape.org/namespaces/inkscape"
   width="24"
   height="24"
   viewBox="0 0 24 24"
   fill="none"
   stroke="#000"
   stroke-width="1"
   stroke-linecap="round"
   stroke-linejoin="round"
   version="1.1"
   id="svg8"
   sodipodi:docname="watch.svg"
   inkscape:version="0.92.1 r">
  <metadata
     id="metadata14">
    <rdf:RDF>
      <cc:Work
         rdf:about="">
        <dc:format>image/svg+xml</dc:format>
        <dc:type
           rdf:resource="http://purl.org/dc/dcmitype/StillImage" />
      </cc:Work>
    </rdf:RDF>
  </metadata>
  <defs
     id="defs12" />
  <sodipodi:namedview
     pagecolor="#ffffff"
     bordercolor="#666666"
     borderopacity="1"
     objecttolerance="10"
     gridtolerance="10"
     guidetolerance="10"
     inkscape:pageopacity="0"
     inkscape:pageshadow="2"
     inkscape:window-width="640"
     inkscape:window-height="480"
     id="namedview10"
     showgrid="false"
     inkscape:zoom="9.8333333"
     inkscape:cx="12"
     inkscape:cy="12"
     inkscape:current-layer="svg8" />
  <path
     style="color:#000000;font-style:normal;font-variant:normal;font-weight:normal;font-stretch:normal;font-size:medium;line-height:normal;font-family:sans-serif;font-variant-ligatures:normal;font-variant-position:normal;font-variant-caps:normal;font-variant-numeric:normal;font-variant-alternates:normal;font-feature-settings:normal;text-indent:0;text-align:start;text-decoration:none;text-decoration-line:none;text-decoration-style:solid;text-decoration-color:#000000;letter-spacing:normal;word-spacing:normal;text-transform:none;writing-mode:lr-tb;direction:ltr;text-orientation:mixed;dominant-baseline:auto;baseline-shift:baseline;text-anchor:start;white-space:normal;shape-padding:0;clip-rule:nonzero;display:inline;overflow:visible;visibility:visible;opacity:1;isolation:auto;mix-blend-mode:normal;color-interpolation:sRGB;color-interpolation-filters:linearRGB;solid-color:#000000;solid-opacity:1;vector-effect:none;fill:#000000;fill-opacity:1;fill-rule:nonzero;stroke:none;stroke-width:1;stroke-linecap:butt;stroke-linejoin:miter;stroke-miterlimit:4;stroke-dasharray:none;stroke-dashoffset:0;stroke-opacity:1;color-rendering:auto;image-rendering:auto;shape-rendering:auto;text-rendering:auto;enable-background:accumulate"
     d="m 12,4.5 c -4.1362133,0 -7.5,3.3637867 -7.5,7.5 0,4.136213 3.3637867,7.5 7.5,7.5 4.136213,0 7.5,-3.363787 7.5,-7.5 0,-4.1362133 -3.363787,-7.5 -7.5,-7.5 z m 0,1 c 3.595773,0 6.5,2.9042268 6.5,6.5 0,3.595773 -2.904227,6.5 -6.5,6.5 C 8.4042268,18.5 5.5,15.595773 5.5,12 5.5,8.4042268 8.4042268,5.5 12,5.5 Z"
     id="circle2"
     inkscape:connector-curvature="0" />
  <path
     style="color:#000000;font-style:normal;font-variant:normal;font-weight:normal;font-stretch:normal;font-size:medium;line-height:normal;font-family:sans-serif;font-variant-ligatures:normal;font-variant-position:normal;font-variant-caps:normal;font-variant-numeric:normal;font-variant-alternates:normal;font-feature-settings:normal;text-indent:0;text-align:start;text-decoration:none;text-decoration-line:none;text-decoration-style:solid;text-decoration-color:#000000;letter-spacing:normal;word-spacing:normal;text-transform:none;writing-mode:lr-tb;direction:ltr;text-orientation:mixed;dominant-baseline:auto;baseline-shift:baseline;text-anchor:start;white-space:normal;shape-padding:0;clip-rule:nonzero;display:inline;overflow:visible;visibility:visible;opacity:1;isolation:auto;mix-blend-mode:normal;color-interpolation:sRGB;color-interpolation-filters:linearRGB;solid-color:#000000;solid-opacity:1;vector-effect:none;fill:#000000;fill-opacity:1;fill-rule:nonzero;stroke:none;stroke-width:1;stroke-linecap:butt;stroke-linejoin:miter;stroke-miterlimit:4;stroke-dasharray:none;stroke-dashoffset:0;stroke-opacity:1;color-rendering:auto;image-rendering:auto;shape-rendering:auto;text-rendering:auto;enable-background:accumulate"
     d="M 11.992188,8.4921875 A 0.50005,0.50005 0 0 0 11.5,9 v 3 a 0.50005,0.50005 0 0 0 0.146484,0.353516 l 1.5,1.5 a 0.50005,0.50005 0 1 0 0.707032,-0.707032 L 12.5,11.792969 V 9 A 0.50005,0.50005 0 0 0 11.992188,8.4921875 Z"
     id="polyline4"
     inkscape:connector-curvature="0" />
  <path
     style="color:#000000;font-style:normal;font-variant:normal;font-weight:normal;font-stretch:normal;font-size:medium;line-height:normal;font-family:sans-serif;font-variant-ligatures:normal;font-variant-position:normal;font-variant-caps:normal;font-variant-numeric:normal;font-variant-alternates:normal;font-feature-settings:normal;text-indent:0;text-align:start;text-decoration:none;text-decoration-line:none;text-decoration-style:solid;text-decoration-color:#000000;letter-spacing:normal;word-spacing:normal;text-transform:none;writing-mode:lr-tb;direction:ltr;text-orientation:mixed;dominant-baseline:auto;baseline-shift:baseline;text-anchor:start;white-space:normal;shape-padding:0;clip-rule:nonzero;display:inline;overflow:visible;visibility:visible;opacity:1;isolation:auto;mix-blend-mode:normal;color-interpolation:sRGB;color-interpolation-filters:linearRGB;solid-color:#000000;solid-opacity:1;vector-effect:none;fill:#000000;fill-opacity:1;fill-rule:nonzero;stroke:none;stroke-width:1;stroke-linecap:butt;stroke-linejoin:miter;stroke-miterlimit:4;stroke-dasharray:none;stroke-dashoffset:0;stroke-opacity:1;color-rendering:auto;image-rendering:auto;shape-rendering:auto;text-rendering:auto;enable-background:accumulate"
     d="M 9.8300781,0.5 C 8.5418751,0.50121324 7.4577346,1.4924148 7.3417969,2.7753906 L 6.9921875,6.6054688 a 0.50006863,0.50006863 0 1 0 0.9960937,0.089844 L 8.3378906,2.8652344 C 8.4080894,2.0884093 9.0500881,1.5007346 9.8300781,1.5 h 4.3496099 a 0.50005,0.50005 0 0 0 0.002,0 c 0.782939,-0.00318 1.429541,0.5854654 1.5,1.3652344 l 0.349609,3.8300781 a 0.50006878,0.50006878 0 1 0 0.996094,-0.089844 L 16.677734,2.7753906 C 16.56144,1.4883518 15.471756,0.4957589 14.179688,0.5 Z M 7.4765625,16.84375 a 0.50005,0.50005 0 0 0 -0.4941406,0.550781 l 0.3496093,3.830078 C 7.448326,22.511648 8.5380098,23.504241 9.8300781,23.5 h 4.3300779 c 1.292069,0.0042 2.381752,-0.988352 2.498047,-2.275391 l 0.349609,-3.830078 a 0.50006825,0.50006825 0 1 0 -0.996093,-0.08984 l -0.34961,3.830078 c -0.07046,0.779769 -0.71706,1.368411 -1.5,1.365234 a 0.50005,0.50005 0 0 0 -0.002,0 H 9.8300781 a 0.50005,0.50005 0 0 0 -0.00195,0 c -0.7829393,0.0032 -1.4295413,-0.585465 -1.5,-1.365234 L 7.9785156,17.304688 A 0.50005,0.50005 0 0 0 7.4765625,16.84375 Z"
     id="path6"
     inkscape:connector-curvature="0" />
</svg>
