<?xml version="1.0" encoding="UTF-8" standalone="no"?>
<svg
   xmlns:dc="http://purl.org/dc/elements/1.1/"
   xmlns:cc="http://creativecommons.org/ns#"
   xmlns:rdf="http://www.w3.org/1999/02/22-rdf-syntax-ns#"
   xmlns:svg="http://www.w3.org/2000/svg"
   xmlns="http://www.w3.org/2000/svg"
   xmlns:sodipodi="http://sodipodi.sourceforge.net/DTD/sodipodi-0.dtd"
   xmlns:inkscape="http://www.inkscape.org/namespaces/inkscape"
   width="24"
   height="24"
   viewBox="0 0 24 24"
   fill="none"
   stroke="#000"
   stroke-width="1"
   stroke-linecap="round"
   stroke-linejoin="round"
   version="1.1"
   id="svg4"
   sodipodi:docname="thermometer.svg"
   inkscape:version="0.92.1 r">
  <metadata
     id="metadata10">
    <rdf:RDF>
      <cc:Work
         rdf:about="">
        <dc:format>image/svg+xml</dc:format>
        <dc:type
           rdf:resource="http://purl.org/dc/dcmitype/StillImage" />
      </cc:Work>
    </rdf:RDF>
  </metadata>
  <defs
     id="defs8" />
  <sodipodi:namedview
     pagecolor="#ffffff"
     bordercolor="#666666"
     borderopacity="1"
     objecttolerance="10"
     gridtolerance="10"
     guidetolerance="10"
     inkscape:pageopacity="0"
     inkscape:pageshadow="2"
     inkscape:window-width="640"
     inkscape:window-height="480"
     id="namedview6"
     showgrid="false"
     inkscape:zoom="9.8333333"
     inkscape:cx="12"
     inkscape:cy="12"
     inkscape:current-layer="svg4" />
  <path
     style="color:#000000;font-style:normal;font-variant:normal;font-weight:normal;font-stretch:normal;font-size:medium;line-height:normal;font-family:sans-serif;font-variant-ligatures:normal;font-variant-position:normal;font-variant-caps:normal;font-variant-numeric:normal;font-variant-alternates:normal;font-feature-settings:normal;text-indent:0;text-align:start;text-decoration:none;text-decoration-line:none;text-decoration-style:solid;text-decoration-color:#000000;letter-spacing:normal;word-spacing:normal;text-transform:none;writing-mode:lr-tb;direction:ltr;text-orientation:mixed;dominant-baseline:auto;baseline-shift:baseline;text-anchor:start;white-space:normal;shape-padding:0;clip-rule:nonzero;display:inline;overflow:visible;visibility:visible;opacity:1;isolation:auto;mix-blend-mode:normal;color-interpolation:sRGB;color-interpolation-filters:linearRGB;solid-color:#000000;solid-opacity:1;vector-effect:none;fill:#000000;fill-opacity:1;fill-rule:nonzero;stroke:none;stroke-width:1;stroke-linecap:butt;stroke-linejoin:miter;stroke-miterlimit:4;stroke-dasharray:none;stroke-dashoffset:0;stroke-opacity:1;color-rendering:auto;image-rendering:auto;shape-rendering:auto;text-rendering:auto;enable-background:accumulate"
     d="M 11.5,0.5 C 10.763889,0.5 10.02106,0.74365027 9.4492188,1.2519531 8.8773778,1.760256 8.5,2.541667 8.5,3.5 v 11.052734 c -1.8160763,1.375029 -2.3468163,3.549669 -1.7851562,5.400391 0.587764,1.936738 2.3444865,3.548828 4.7851562,3.548828 2.44067,0 4.197392,-1.61209 4.785156,-3.548828 0.56166,-1.850722 0.03092,-4.025362 -1.785156,-5.400391 V 3.5 C 14.5,2.541667 14.122622,1.760256 13.550781,1.2519531 12.97894,0.74365027 12.236111,0.5 11.5,0.5 Z m 0,1 c 0.513889,0 1.02106,0.1730168 1.386719,0.4980469 C 13.252378,2.323077 13.5,2.7916671 13.5,3.5 v 11.259766 a 0.50005,0.50005 0 0 0 0.222656,0.416015 c 1.670758,1.116322 2.080609,2.920699 1.605469,4.486328 -0.47514,1.56563 -1.819625,2.839844 -3.828125,2.839844 -2.0085,0 -3.3529855,-1.274214 -3.828125,-2.839844 C 7.1967355,18.09648 7.6065862,16.292103 9.2773438,15.175781 A 0.50005,0.50005 0 0 0 9.5,14.759766 V 3.5 C 9.5,2.7916671 9.7476222,2.323077 10.113281,1.9980469 10.47894,1.6730168 10.986111,1.5 11.5,1.5 Z"
     id="path2"
     inkscape:connector-curvature="0" />
</svg>
